<svg id="visual" viewBox="0 0 900 600" width="900" height="600" xmlns="http://www.w3.org/2000/svg" xmlns:xlink="http://www.w3.org/1999/xlink" version="1.1"><rect x="0" y="0" width="900" height="600" fill="#001220"></rect><path d="M0 435L18.8 430.7C37.7 426.3 75.3 417.7 112.8 406.7C150.3 395.7 187.7 382.3 225.2 375.8C262.7 369.3 300.3 369.7 337.8 377.8C375.3 386 412.7 402 450.2 409C487.7 416 525.3 414 562.8 411.2C600.3 408.3 637.7 404.7 675.2 397.3C712.7 390 750.3 379 787.8 381.5C825.3 384 862.7 400 881.3 408L900 416L900 601L881.3 601C862.7 601 825.3 601 787.8 601C750.3 601 712.7 601 675.2 601C637.7 601 600.3 601 562.8 601C525.3 601 487.7 601 450.2 601C412.7 601 375.3 601 337.8 601C300.3 601 262.7 601 225.2 601C187.7 601 150.3 601 112.8 601C75.3 601 37.7 601 18.8 601L0 601Z" fill="#0066ff"></path><path d="M0 423L18.8 419.7C37.7 416.3 75.3 409.7 112.8 414.8C150.3 420 187.7 437 225.2 437.5C262.7 438 300.3 422 337.8 415.5C375.3 409 412.7 412 450.2 420C487.7 428 525.3 441 562.8 440.7C600.3 440.3 637.7 426.7 675.2 418C712.7 409.3 750.3 405.7 787.8 410.3C825.3 415 862.7 428 881.3 434.5L900 441L900 601L881.3 601C862.7 601 825.3 601 787.8 601C750.3 601 712.7 601 675.2 601C637.7 601 600.3 601 562.8 601C525.3 601 487.7 601 450.2 601C412.7 601 375.3 601 337.8 601C300.3 601 262.7 601 225.2 601C187.7 601 150.3 601 112.8 601C75.3 601 37.7 601 18.8 601L0 601Z" fill="#5477ff"></path><path d="M0 461L18.8 462.7C37.7 464.3 75.3 467.7 112.8 462.5C150.3 457.3 187.7 443.7 225.2 437.7C262.7 431.7 300.3 433.3 337.8 432.5C375.3 431.7 412.7 428.3 450.2 435C487.7 441.7 525.3 458.3 562.8 460.3C600.3 462.3 637.7 449.7 675.2 448.3C712.7 447 750.3 457 787.8 459.2C825.3 461.3 862.7 455.7 881.3 452.8L900 450L900 601L881.3 601C862.7 601 825.3 601 787.8 601C750.3 601 712.7 601 675.2 601C637.7 601 600.3 601 562.8 601C525.3 601 487.7 601 450.2 601C412.7 601 375.3 601 337.8 601C300.3 601 262.7 601 225.2 601C187.7 601 150.3 601 112.8 601C75.3 601 37.7 601 18.8 601L0 601Z" fill="#7789ff"></path><path d="M0 456L18.8 457.5C37.7 459 75.3 462 112.8 465.3C150.3 468.7 187.7 472.3 225.2 470C262.7 467.7 300.3 459.3 337.8 457.7C375.3 456 412.7 461 450.2 463C487.7 465 525.3 464 562.8 462.2C600.3 460.3 637.7 457.7 675.2 458.8C712.7 460 750.3 465 787.8 466.3C825.3 467.7 862.7 465.3 881.3 464.2L900 463L900 601L881.3 601C862.7 601 825.3 601 787.8 601C750.3 601 712.7 601 675.2 601C637.7 601 600.3 601 562.8 601C525.3 601 487.7 601 450.2 601C412.7 601 375.3 601 337.8 601C300.3 601 262.7 601 225.2 601C187.7 601 150.3 601 112.8 601C75.3 601 37.7 601 18.8 601L0 601Z" fill="#939cff"></path><path d="M0 502L18.8 499.2C37.7 496.3 75.3 490.7 112.8 490.5C150.3 490.3 187.7 495.7 225.2 498.2C262.7 500.7 300.3 500.3 337.8 494C375.3 487.7 412.7 475.3 450.2 469.3C487.7 463.3 525.3 463.7 562.8 467C600.3 470.3 637.7 476.7 675.2 480.7C712.7 484.7 750.3 486.3 787.8 485.7C825.3 485 862.7 482 881.3 480.5L900 479L900 601L881.3 601C862.7 601 825.3 601 787.8 601C750.3 601 712.7 601 675.2 601C637.7 601 600.3 601 562.8 601C525.3 601 487.7 601 450.2 601C412.7 601 375.3 601 337.8 601C300.3 601 262.7 601 225.2 601C187.7 601 150.3 601 112.8 601C75.3 601 37.7 601 18.8 601L0 601Z" fill="#acafff"></path><path d="M0 527L18.8 525.3C37.7 523.7 75.3 520.3 112.8 518.3C150.3 516.3 187.7 515.7 225.2 510.3C262.7 505 300.3 495 337.8 498C375.3 501 412.7 517 450.2 522.5C487.7 528 525.3 523 562.8 520.2C600.3 517.3 637.7 516.7 675.2 511.2C712.7 505.7 750.3 495.3 787.8 491.3C825.3 487.3 862.7 489.7 881.3 490.8L900 492L900 601L881.3 601C862.7 601 825.3 601 787.8 601C750.3 601 712.7 601 675.2 601C637.7 601 600.3 601 562.8 601C525.3 601 487.7 601 450.2 601C412.7 601 375.3 601 337.8 601C300.3 601 262.7 601 225.2 601C187.7 601 150.3 601 112.8 601C75.3 601 37.7 601 18.8 601L0 601Z" fill="#c2c2ff"></path><path d="M0 522L18.8 524C37.7 526 75.3 530 112.8 531C150.3 532 187.7 530 225.2 530.5C262.7 531 300.3 534 337.8 534.3C375.3 534.7 412.7 532.3 450.2 528.7C487.7 525 525.3 520 562.8 518.2C600.3 516.3 637.7 517.7 675.2 522.7C712.7 527.7 750.3 536.3 787.8 541.7C825.3 547 862.7 549 881.3 550L900 551L900 601L881.3 601C862.7 601 825.3 601 787.8 601C750.3 601 712.7 601 675.2 601C637.7 601 600.3 601 562.8 601C525.3 601 487.7 601 450.2 601C412.7 601 375.3 601 337.8 601C300.3 601 262.7 601 225.2 601C187.7 601 150.3 601 112.8 601C75.3 601 37.7 601 18.8 601L0 601Z" fill="#d7d6ff"></path><path d="M0 544L18.8 544.2C37.7 544.3 75.3 544.7 112.8 545.5C150.3 546.3 187.7 547.7 225.2 546.3C262.7 545 300.3 541 337.8 540.2C375.3 539.3 412.7 541.7 450.2 540.8C487.7 540 525.3 536 562.8 541C600.3 546 637.7 560 675.2 560.5C712.7 561 750.3 548 787.8 542.7C825.3 537.3 862.7 539.7 881.3 540.8L900 542L900 601L881.3 601C862.7 601 825.3 601 787.8 601C750.3 601 712.7 601 675.2 601C637.7 601 600.3 601 562.8 601C525.3 601 487.7 601 450.2 601C412.7 601 375.3 601 337.8 601C300.3 601 262.7 601 225.2 601C187.7 601 150.3 601 112.8 601C75.3 601 37.7 601 18.8 601L0 601Z" fill="#eceaff"></path><path d="M0 580L18.8 581.3C37.7 582.7 75.3 585.3 112.8 582.2C150.3 579 187.7 570 225.2 565C262.7 560 300.3 559 337.8 559.2C375.3 559.3 412.7 560.7 450.2 565C487.7 569.3 525.3 576.7 562.8 576.7C600.3 576.7 637.7 569.3 675.2 565.8C712.7 562.3 750.3 562.7 787.8 563.2C825.3 563.7 862.7 564.3 881.3 564.7L900 565L900 601L881.3 601C862.7 601 825.3 601 787.8 601C750.3 601 712.7 601 675.2 601C637.7 601 600.3 601 562.8 601C525.3 601 487.7 601 450.2 601C412.7 601 375.3 601 337.8 601C300.3 601 262.7 601 225.2 601C187.7 601 150.3 601 112.8 601C75.3 601 37.7 601 18.8 601L0 601Z" fill="#ffffff"></path></svg>