<svg id="visual" viewBox="0 0 900 600" width="900" height="600" xmlns="http://www.w3.org/2000/svg" xmlns:xlink="http://www.w3.org/1999/xlink" version="1.1"><rect x="0" y="0" width="900" height="600" fill="#71d3f6"></rect><path d="M0 391L18.8 395C37.7 399 75.3 407 112.8 402.7C150.3 398.3 187.7 381.7 225.2 384.7C262.7 387.7 300.3 410.3 337.8 415C375.3 419.7 412.7 406.3 450.2 399C487.7 391.7 525.3 390.3 562.8 386.7C600.3 383 637.7 377 675.2 385.2C712.7 393.3 750.3 415.7 787.8 421.8C825.3 428 862.7 418 881.3 413L900 408L900 601L881.3 601C862.7 601 825.3 601 787.8 601C750.3 601 712.7 601 675.2 601C637.7 601 600.3 601 562.8 601C525.3 601 487.7 601 450.2 601C412.7 601 375.3 601 337.8 601C300.3 601 262.7 601 225.2 601C187.7 601 150.3 601 112.8 601C75.3 601 37.7 601 18.8 601L0 601Z" fill="#0066ff"></path><path d="M0 426L18.8 433.2C37.7 440.3 75.3 454.7 112.8 461C150.3 467.3 187.7 465.7 225.2 459.3C262.7 453 300.3 442 337.8 435.5C375.3 429 412.7 427 450.2 437.3C487.7 447.7 525.3 470.3 562.8 477.7C600.3 485 637.7 477 675.2 473.5C712.7 470 750.3 471 787.8 463.7C825.3 456.3 862.7 440.7 881.3 432.8L900 425L900 601L881.3 601C862.7 601 825.3 601 787.8 601C750.3 601 712.7 601 675.2 601C637.7 601 600.3 601 562.8 601C525.3 601 487.7 601 450.2 601C412.7 601 375.3 601 337.8 601C300.3 601 262.7 601 225.2 601C187.7 601 150.3 601 112.8 601C75.3 601 37.7 601 18.8 601L0 601Z" fill="#8b96ff"></path><path d="M0 547L18.8 540C37.7 533 75.3 519 112.8 511.3C150.3 503.7 187.7 502.3 225.2 509.8C262.7 517.3 300.3 533.7 337.8 538.2C375.3 542.7 412.7 535.3 450.2 529.2C487.7 523 525.3 518 562.8 510.3C600.3 502.7 637.7 492.3 675.2 497.8C712.7 503.3 750.3 524.7 787.8 534.2C825.3 543.7 862.7 541.3 881.3 540.2L900 539L900 601L881.3 601C862.7 601 825.3 601 787.8 601C750.3 601 712.7 601 675.2 601C637.7 601 600.3 601 562.8 601C525.3 601 487.7 601 450.2 601C412.7 601 375.3 601 337.8 601C300.3 601 262.7 601 225.2 601C187.7 601 150.3 601 112.8 601C75.3 601 37.7 601 18.8 601L0 601Z" fill="#c9c9ff"></path><path d="M0 550L18.8 554.8C37.7 559.7 75.3 569.3 112.8 564C150.3 558.7 187.7 538.3 225.2 537.3C262.7 536.3 300.3 554.7 337.8 552.3C375.3 550 412.7 527 450.2 517.7C487.7 508.3 525.3 512.7 562.8 516C600.3 519.3 637.7 521.7 675.2 530.2C712.7 538.7 750.3 553.3 787.8 551.3C825.3 549.3 862.7 530.7 881.3 521.3L900 512L900 601L881.3 601C862.7 601 825.3 601 787.8 601C750.3 601 712.7 601 675.2 601C637.7 601 600.3 601 562.8 601C525.3 601 487.7 601 450.2 601C412.7 601 375.3 601 337.8 601C300.3 601 262.7 601 225.2 601C187.7 601 150.3 601 112.8 601C75.3 601 37.7 601 18.8 601L0 601Z" fill="#ffffff"></path></svg>